<?xml version="1.0" encoding="utf-8"?>
<svg version="1.1" xmlns:xlink="http://www.w3.org/1999/xlink" width="50px" height="48px" xmlns="http://www.w3.org/2000/svg">
  <g transform="matrix(1 0 0 1 -316 -2915 )">
    <path d="M 1 16  L 12 16  L 12 48  L 1 48  L 1 16  Z M 10.3841145833333 1.5858310626703  C 11.4691840277778 2.64305177111716  12.0225694444444 3.97820163487738  12.0442708333333 5.59128065395096  C 12.0659722222222 7.1825613079019  11.5180121527778 8.51226158038147  10.400390625 9.58038147138964  C 9.28276909722222 10.6485013623978  7.8125 11.1825613079019  5.98958333333333 11.1825613079019  L 5.92447916666667 11.1825613079019  C 4.14496527777778 11.1825613079019  2.71267361111111 10.6485013623978  1.62760416666667 9.58038147138964  C 0.542534722222222 8.51226158038147  0 7.1825613079019  0 5.59128065395096  C 0 3.97820163487738  0.558810763888889 2.64305177111716  1.67643229166667 1.5858310626703  C 2.79405381944444 0.52861035422343  4.25347222222222 0  6.0546875 0  C 7.85590277777778 0  9.29904513888889 0.52861035422343  10.3841145833333 1.5858310626703  Z M 46.6145833333333 18.5558583106267  C 48.8715277777778 21.0299727520436  50 24.6539509536785  50 29.4277929155313  L 50 48  L 39 48  L 39 30.6702997275204  C 39.2903645833333 28.3814713896458  38.8509114583333 26.5885558583106  37.9720052083333 25.291553133515  C 37.0930989583333 23.9945504087193  35.7204861111111 23.3460490463215  33.8541666666667 23.3460490463215  C 32.4869791666667 23.3460490463215  31.3422309027778 23.7220708446866  30.419921875 24.4741144414169  C 29.4976128472222 25.2261580381471  28.80859375 26.158038147139  28.3528645833333 27.2697547683924  C 28.1141493055556 27.9237057220708  27.9947916666667 28.8065395095368  28 29.9182561307902  L 28 48  L 17.28515625 48  C 17.3285590277778 39.3024523160763  17.3502604166667 32.2506811989101  17.3502604166667 26.8446866485014  C 17.3502604166667 21.4386920980926  17.3394097222222 18.2125340599455  17.3177083333333 17.1662125340599  L 17.28515625 16  L 27.9947916666667 16  L 27.9947916666667 20.3051771117166  L 27.9296875 20.3051771117166  C 28.3637152777778 19.6076294277929  28.80859375 18.9972752043597  29.2643229166667 18.4741144414169  C 29.7200520833333 17.9509536784741  30.3331163194444 17.3841961852861  31.103515625 16.7738419618529  C 31.8739149305556 16.1634877384196  32.8179253472222 15.6893732970027  33.935546875 15.3514986376022  C 35.0531684027778 15.0136239782016  36.2955729166667 14.8446866485014  37.6627604166667 14.8446866485014  C 41.3736979166667 14.8446866485014  44.3576388888889 16.0817438692098  46.6145833333333 18.5558583106267  Z " fill-rule="nonzero" fill="#000000" stroke="none" transform="matrix(1 0 0 1 316 2915 )" />
  </g>
</svg>