<?xml version="1.0" encoding="utf-8"?>
<svg version="1.1" xmlns:xlink="http://www.w3.org/1999/xlink" width="34px" height="36px" xmlns="http://www.w3.org/2000/svg">
  <g transform="matrix(1 0 0 1 -737 -2626 )">
    <path d="M 23.4856770833333 16.78125  C 23.8841145833333 17.078125  24.0833333333333 17.484375  24.0833333333333 18  C 24.0833333333333 18.515625  23.8841145833333 18.921875  23.4856770833333 19.21875  L 13.5690104166667 26.71875  C 13.1115451388889 27.078125  12.6245659722222 27.1171875  12.1080729166667 26.8359375  C 11.5915798611111 26.5703125  11.3333333333333 26.125  12 25.5  L 12 10.5  C 11.3333333333333 9.875  11.5915798611111 9.4296875  12.1080729166667 9.1640625  C 12.6245659722222 8.8828125  13.1115451388889 8.921875  13.5690104166667 9.28125  L 23.4856770833333 16.78125  Z M 28.1341145833333 29.7890625  C 28.2669270833333 29.6484375  28.3333333333333 29.46875  28 29.25  L 28 6.75  C 28.3333333333333 6.53125  28.2669270833333 6.3515625  28.1341145833333 6.2109375  C 28.0013020833333 6.0703125  27.8315972222222 6  27.625 6  L 6.375 6  C 6.16840277777778 6  5.99869791666667 6.0703125  5.86588541666667 6.2109375  C 5.73307291666667 6.3515625  5.66666666666667 6.53125  6 6.75  L 6 29.25  C 5.66666666666667 29.46875  5.73307291666667 29.6484375  5.86588541666667 29.7890625  C 5.99869791666667 29.9296875  6.16840277777778 30  6.375 30  L 27.625 30  C 27.8315972222222 30  28.0013020833333 29.9296875  28.1341145833333 29.7890625  Z M 32.1295572916667 1.98046875  C 33.3765190972222 3.30078125  34 4.89062499999999  34 6.75  L 34 29.25  C 34 31.109375  33.3765190972222 32.69921875  32.1295572916667 34.01953125  C 30.8825954861111 35.33984375  29.3810763888889 36  27.625 36  L 6.375 36  C 4.61892361111111 36  3.11740451388889 35.33984375  1.87044270833333 34.01953125  C 0.623480902777778 32.69921875  0 31.109375  0 29.25  L 0 6.75  C 0 4.89062499999999  0.623480902777778 3.30078125  1.87044270833333 1.98046875  C 3.11740451388889 0.660156249999998  4.61892361111111 0  6.375 0  L 27.625 0  C 29.3810763888889 0  30.8825954861111 0.660156249999998  32.1295572916667 1.98046875  Z " fill-rule="nonzero" fill="#7f7f7f" stroke="none" transform="matrix(1 0 0 1 737 2626 )" />
  </g>
</svg>