<?xml version="1.0" encoding="utf-8"?>
<svg version="1.1" xmlns:xlink="http://www.w3.org/1999/xlink" width="13px" height="17px" xmlns="http://www.w3.org/2000/svg">
  <g transform="matrix(1 0 0 1 -391 -350 )">
    <path d="M 13 8.5  C 13 8.68279569892473  12.9205276705277 8.84098428453267  12.761583011583 8.97456575682382  L 3.4507722007722 16.7996277915633  C 3.29182754182754 16.9332092638544  3.1036036036036 17  2.88610038610039 17  C 2.66859716859717 17  2.48037323037323 16.9332092638544  2.32142857142857 16.7996277915633  L 0.238416988416988 15.0490074441687  C 0.0794723294723296 14.9154259718776  0 14.7572373862696  0 14.5744416873449  C 0 14.3916459884202  0.0794723294723296 14.2334574028122  0.238416988416988 14.0998759305211  L 6.9015444015444 8.5  L 0.238416988416988 2.90012406947891  C 0.0794723294723296 2.76654259718776  0 2.60835401157982  0 2.42555831265509  C 0 2.24276261373035  0.0794723294723296 2.08457402812241  0.238416988416988 1.95099255583127  L 2.32142857142857 0.200372208436724  C 2.48037323037323 0.0667907361455741  2.66859716859717 0  2.88610038610039 0  C 3.1036036036036 0  3.29182754182754 0.0667907361455741  3.4507722007722 0.200372208436724  L 12.761583011583 8.02543424317618  C 12.9205276705277 8.15901571546733  13 8.31720430107527  13 8.5  Z " fill-rule="nonzero" fill="#ffffff" stroke="none" transform="matrix(1 0 0 1 391 350 )" />
  </g>
</svg>