<?xml version="1.0" encoding="utf-8"?>
<svg version="1.1" xmlns:xlink="http://www.w3.org/1999/xlink" width="61px" height="42px" xmlns="http://www.w3.org/2000/svg">
  <g transform="matrix(1 0 0 1 -714 -8 )">
    <path d="M 39.2142857142857 32.89453125  C 39.5093005952381 32.89453125  39.7702752976191 32.8033854166667  39.9972098214286 32.62109375  L 44.9670758928571 28.62890625  C 45.1940104166667 28.4466145833333  45.3074776785714 28.2369791666667  45.3074776785714 28  C 45.3074776785714 27.7630208333333  45.1940104166667 27.5533854166667  44.9670758928571 27.37109375  L 37.0357142857143 21  L 44.9670758928571 14.62890625  C 45.1940104166667 14.4466145833333  45.3074776785714 14.2369791666667  45.3074776785714 14  C 45.3074776785714 13.7630208333333  45.1940104166667 13.5533854166667  44.9670758928571 13.37109375  L 39.9972098214286 9.37890625  C 39.7702752976191 9.19661458333333  39.5093005952381 9.10546875  39.2142857142857 9.10546875  C 38.9192708333333 9.10546875  38.6582961309524 9.19661458333333  38.4313616071429 9.37890625  L 30.5 15.75  L 22.5686383928571 9.37890625  C 22.3417038690476 9.19661458333333  22.0807291666667 9.10546875  21.7857142857143 9.10546875  C 21.4906994047619 9.10546875  21.229724702381 9.19661458333333  21.0027901785714 9.37890625  L 16.0329241071429 13.37109375  C 15.8059895833333 13.5533854166667  15.6925223214286 13.7630208333333  15.6925223214286 14  C 15.6925223214286 14.2369791666667  15.8059895833333 14.4466145833333  16.0329241071429 14.62890625  L 23.9642857142857 21  L 16.0329241071429 27.37109375  C 15.8059895833333 27.5533854166667  15.6925223214286 27.7630208333333  15.6925223214286 28  C 15.6925223214286 28.2369791666667  15.8059895833333 28.4466145833333  16.0329241071429 28.62890625  L 21.0027901785714 32.62109375  C 21.229724702381 32.8033854166667  21.4906994047619 32.89453125  21.7857142857143 32.89453125  C 22.0807291666667 32.89453125  22.3417038690476 32.8033854166667  22.5686383928571 32.62109375  L 30.5 26.25  L 38.4313616071429 32.62109375  C 38.6582961309524 32.8033854166667  38.9192708333333 32.89453125  39.2142857142857 32.89453125  Z M 59.4001116071429 1.28515625  C 60.4667038690476 2.14192708333333  61 3.171875  61 4.375  L 61 37.625  C 61 38.828125  60.4667038690476 39.8580729166667  59.4001116071429 40.71484375  C 58.3335193452381 41.5716145833333  57.0513392857143 42  55.5535714285714 42  L 5.44642857142857 42  C 3.94866071428571 42  2.66648065476191 41.5716145833333  1.59988839285714 40.71484375  C 0.533296130952381 39.8580729166667  0 38.828125  0 37.625  L 0 4.375  C 0 3.171875  0.533296130952381 2.14192708333333  1.59988839285714 1.28515625  C 2.66648065476191 0.428385416666663  3.94866071428571 0  5.44642857142857 0  L 55.5535714285714 0  C 57.0513392857143 0  58.3335193452381 0.428385416666663  59.4001116071429 1.28515625  Z " fill-rule="nonzero" fill="#d7d7d7" stroke="none" transform="matrix(1 0 0 1 714 8 )" />
  </g>
</svg>